<svg width="202" height="159" viewBox="0 0 202 159" fill="none" xmlns="http://www.w3.org/2000/svg">
<path d="M81.6673 42.0097V43.2715H76.7659V42.0097H81.6673ZM77.2161 34.0395V43.2715H75.6246V34.0395H77.2161ZM81.0269 37.8946V39.1374H76.7659V37.8946H81.0269ZM81.6356 34.0395V35.3076H76.7659V34.0395H81.6356ZM83.9816 36.4109L85.2878 38.6872L86.6194 36.4109H88.2996L86.2199 39.7778L88.3821 43.2715H86.7018L85.3068 40.9001L83.9119 43.2715H82.2253L84.3811 39.7778L82.3077 36.4109H83.9816ZM92.0216 42.1809C92.271 42.1809 92.495 42.1323 92.6937 42.0351C92.8966 41.9336 93.0594 41.7941 93.182 41.6166C93.3088 41.439 93.3785 41.234 93.3912 41.0015H94.8305C94.8221 41.4454 94.691 41.8491 94.4374 42.2126C94.1838 42.5761 93.8477 42.8657 93.4292 43.0813C93.0108 43.2926 92.5479 43.3983 92.0406 43.3983C91.5165 43.3983 91.0599 43.3095 90.671 43.132C90.2822 42.9502 89.9588 42.7008 89.7009 42.3838C89.4431 42.0668 89.2486 41.7011 89.1176 41.2869C88.9908 40.8726 88.9274 40.4287 88.9274 39.9553V39.7334C88.9274 39.2599 88.9908 38.8161 89.1176 38.4018C89.2486 37.9834 89.4431 37.6156 89.7009 37.2986C89.9588 36.9815 90.2822 36.7342 90.671 36.5567C91.0599 36.3749 91.5144 36.2841 92.0343 36.2841C92.5838 36.2841 93.0657 36.394 93.48 36.6138C93.8942 36.8294 94.2197 37.1316 94.4564 37.5205C94.6974 37.9052 94.8221 38.3532 94.8305 38.8647H93.3912C93.3785 38.6111 93.3151 38.3828 93.201 38.1799C93.0911 37.9728 92.9347 37.8079 92.7318 37.6853C92.5331 37.5628 92.2943 37.5015 92.0153 37.5015C91.7067 37.5015 91.4509 37.5649 91.248 37.6917C91.0451 37.8143 90.8866 37.9834 90.7725 38.1989C90.6584 38.4103 90.5759 38.6491 90.5252 38.9154C90.4787 39.1775 90.4555 39.4502 90.4555 39.7334V39.9553C90.4555 40.2385 90.4787 40.5133 90.5252 40.7796C90.5717 41.0459 90.652 41.2847 90.7662 41.4961C90.8845 41.7032 91.0451 41.8702 91.248 41.997C91.4509 42.1196 91.7088 42.1809 92.0216 42.1809ZM99.0281 43.3983C98.5208 43.3983 98.0622 43.3159 97.6521 43.151C97.2463 42.9819 96.8997 42.7473 96.6123 42.4472C96.329 42.1471 96.1114 41.7941 95.9592 41.3883C95.807 40.9825 95.7309 40.545 95.7309 40.0758V39.8222C95.7309 39.2853 95.8091 38.7992 95.9655 38.3638C96.1219 37.9284 96.3396 37.5564 96.6186 37.2478C96.8976 36.935 97.2273 36.6962 97.6078 36.5313C97.9882 36.3665 98.4003 36.2841 98.8442 36.2841C99.3345 36.2841 99.7636 36.3665 100.131 36.5313C100.499 36.6962 100.803 36.9287 101.044 37.2288C101.29 37.5247 101.471 37.8777 101.59 38.2877C101.712 38.6977 101.774 39.15 101.774 39.6446V40.2977H96.4728V39.2008H100.264V39.0803C100.256 38.8055 100.201 38.5477 100.1 38.3067C100.002 38.0658 99.8524 37.8713 99.6495 37.7234C99.4465 37.5754 99.176 37.5015 98.8378 37.5015C98.5842 37.5015 98.3581 37.5564 98.1594 37.6663C97.9649 37.772 97.8022 37.9263 97.6712 38.1292C97.5401 38.3321 97.4387 38.5773 97.3668 38.8647C97.2992 39.1479 97.2654 39.4671 97.2654 39.8222V40.0758C97.2654 40.3759 97.3055 40.6549 97.3858 40.9128C97.4704 41.1664 97.593 41.3883 97.7536 41.5785C97.9142 41.7687 98.1087 41.9188 98.3369 42.0287C98.5652 42.1344 98.8252 42.1872 99.1168 42.1872C99.4846 42.1872 99.8122 42.1133 100.1 41.9653C100.387 41.8174 100.636 41.6081 100.848 41.3376L101.653 42.1175C101.505 42.3331 101.313 42.5402 101.076 42.7389C100.839 42.9333 100.55 43.0918 100.207 43.2144C99.8693 43.337 99.4761 43.3983 99.0281 43.3983ZM104.602 33.5322V43.2715H103.067V33.5322H104.602ZM107.911 33.5322V43.2715H106.377V33.5322H107.911ZM112.61 43.3983C112.103 43.3983 111.644 43.3159 111.234 43.151C110.828 42.9819 110.481 42.7473 110.194 42.4472C109.911 42.1471 109.693 41.7941 109.541 41.3883C109.389 40.9825 109.313 40.545 109.313 40.0758V39.8222C109.313 39.2853 109.391 38.7992 109.547 38.3638C109.704 37.9284 109.921 37.5564 110.2 37.2478C110.479 36.935 110.809 36.6962 111.189 36.5313C111.57 36.3665 111.982 36.2841 112.426 36.2841C112.916 36.2841 113.345 36.3665 113.713 36.5313C114.081 36.6962 114.385 36.9287 114.626 37.2288C114.871 37.5247 115.053 37.8777 115.171 38.2877C115.294 38.6977 115.355 39.15 115.355 39.6446V40.2977H110.055V39.2008H113.846V39.0803C113.838 38.8055 113.783 38.5477 113.681 38.3067C113.584 38.0658 113.434 37.8713 113.231 37.7234C113.028 37.5754 112.758 37.5015 112.42 37.5015C112.166 37.5015 111.94 37.5564 111.741 37.6663C111.547 37.772 111.384 37.9263 111.253 38.1292C111.122 38.3321 111.02 38.5773 110.949 38.8647C110.881 39.1479 110.847 39.4671 110.847 39.8222V40.0758C110.847 40.3759 110.887 40.6549 110.968 40.9128C111.052 41.1664 111.175 41.3883 111.335 41.5785C111.496 41.7687 111.69 41.9188 111.919 42.0287C112.147 42.1344 112.407 42.1872 112.699 42.1872C113.066 42.1872 113.394 42.1133 113.681 41.9653C113.969 41.8174 114.218 41.6081 114.43 41.3376L115.235 42.1175C115.087 42.3331 114.895 42.5402 114.658 42.7389C114.421 42.9333 114.132 43.0918 113.789 43.2144C113.451 43.337 113.058 43.3983 112.61 43.3983ZM118.063 37.8756V43.2715H116.535V36.4109H117.974L118.063 37.8756ZM117.79 39.5875L117.296 39.5812C117.3 39.0951 117.367 38.6491 117.498 38.2433C117.634 37.8375 117.82 37.4888 118.056 37.1971C118.297 36.9054 118.585 36.6814 118.919 36.525C119.253 36.3644 119.625 36.2841 120.035 36.2841C120.364 36.2841 120.662 36.3306 120.929 36.4235C121.199 36.5123 121.43 36.6582 121.62 36.8611C121.814 37.064 121.962 37.3282 122.064 37.6536C122.165 37.9749 122.216 38.3701 122.216 38.8393V43.2715H120.681V38.833C120.681 38.5033 120.633 38.2433 120.536 38.0531C120.443 37.8587 120.305 37.7213 120.124 37.641C119.946 37.5564 119.724 37.5141 119.458 37.5141C119.196 37.5141 118.961 37.5691 118.754 37.679C118.547 37.7889 118.371 37.939 118.228 38.1292C118.088 38.3194 117.98 38.5392 117.904 38.7886C117.828 39.038 117.79 39.3043 117.79 39.5875ZM126.921 36.4109V37.5268H123.053V36.4109H126.921ZM124.169 34.7306H125.697V41.3756C125.697 41.587 125.727 41.7497 125.786 41.8639C125.849 41.9738 125.936 42.0477 126.046 42.0858C126.156 42.1238 126.285 42.1428 126.432 42.1428C126.538 42.1428 126.64 42.1365 126.737 42.1238C126.834 42.1111 126.912 42.0985 126.971 42.0858L126.978 43.2525C126.851 43.2905 126.703 43.3243 126.534 43.3539C126.369 43.3835 126.179 43.3983 125.963 43.3983C125.612 43.3983 125.302 43.337 125.031 43.2144C124.761 43.0876 124.549 42.8826 124.397 42.5994C124.245 42.3162 124.169 41.9399 124.169 41.4707V34.7306Z" fill="white"/>
<g clip-path="url(#clip0_315_10469)">
<path d="M43.2857 54.043H14.4286V82.9001H43.2857V54.043Z" fill="#219653"/>
<path d="M28.8567 73.4915L33.2454 72.3793L35.079 78.0305L28.8567 73.4915ZM38.9567 66.187H31.2314L28.8567 58.9126L26.482 66.187H18.7567L25.0091 70.6959L22.6344 77.9703L28.8868 73.4614L32.7344 70.6959L38.9567 66.187Z" fill="white"/>
<path d="M79.3571 54.043H50.5V82.9001H79.3571V54.043Z" fill="#219653"/>
<path d="M64.9282 73.4915L69.3169 72.3793L71.1506 78.0305L64.9282 73.4915ZM75.0282 66.187H67.3029L64.9282 58.9126L62.5535 66.187H54.8282L61.0806 70.6959L58.7059 77.9703L64.9583 73.4614L68.8059 70.6959L75.0282 66.187Z" fill="white"/>
<path d="M115.429 54.043H86.5714V82.9001H115.429V54.043Z" fill="#219653"/>
<path d="M101 73.4915L105.388 72.3793L107.222 78.0305L101 73.4915ZM111.1 66.187H103.374L101 58.9126L98.6248 66.187H90.8995L97.1519 70.6959L94.7772 77.9703L101.03 73.4614L104.877 70.6959L111.1 66.187Z" fill="white"/>
<path d="M151.5 54.043H122.643V82.9001H151.5V54.043Z" fill="#219653"/>
<path d="M137.071 73.4915L141.46 72.3793L143.294 78.0305L137.071 73.4915ZM147.171 66.187H139.446L137.071 58.9126L134.696 66.187H126.971L133.224 70.6959L130.849 77.9703L137.101 73.4614L140.949 70.6959L147.171 66.187Z" fill="white"/>
<rect width="28.8571" height="28.8571" transform="translate(158.714 54.043)" fill="url(#paint0_linear_315_10469)"/>
<path d="M173.143 73.7757L177.532 72.6005L179.365 78.5716L173.143 73.7757ZM183.243 66.0577H175.518L173.143 58.3716L170.768 66.0577H163.043L169.295 70.8219L166.921 78.5081L173.173 73.7439L177.021 70.8219L183.243 66.0577Z" fill="white"/>
</g>
<path d="M51.008 96.2192H48.986L48.9761 95.7063H50.717C51.0721 95.7063 51.3746 95.6554 51.6244 95.5535C51.8743 95.4515 52.0633 95.3003 52.1916 95.0998C52.3231 94.8959 52.3888 94.646 52.3888 94.3501C52.3888 94.0477 52.3247 93.7978 52.1965 93.6005C52.0683 93.4 51.8759 93.252 51.6195 93.1567C51.3631 93.0613 51.0408 93.0137 50.6529 93.0137H49.1438V99.6714H48.5372V92.4909H50.6529C51.0178 92.4909 51.345 92.5271 51.6343 92.5994C51.9236 92.6717 52.1702 92.7852 52.374 92.9397C52.5779 93.0942 52.7324 93.2898 52.8376 93.5266C52.9461 93.76 53.0004 94.0395 53.0004 94.3649C53.0004 94.6608 52.9346 94.9288 52.8031 95.1688C52.6716 95.4055 52.4858 95.5995 52.2458 95.7507C52.0091 95.8987 51.7247 95.9907 51.3926 96.0269L51.008 96.2192ZM50.9636 99.6714H48.7937L49.1044 99.1536H50.9636C51.3187 99.1536 51.6211 99.0944 51.871 98.976C52.1242 98.8544 52.3181 98.6818 52.4529 98.4582C52.5877 98.2346 52.6551 97.9683 52.6551 97.6593C52.6551 97.3864 52.596 97.1415 52.4776 96.9245C52.3592 96.7075 52.1784 96.5365 51.9351 96.4116C51.6918 96.2833 51.3828 96.2192 51.008 96.2192H49.7504L49.7603 95.7063H51.5406L51.6491 95.8888C51.9713 95.9217 52.2524 96.022 52.4924 96.1896C52.7357 96.354 52.9231 96.5628 53.0546 96.816C53.1894 97.0691 53.2568 97.3469 53.2568 97.6494C53.2568 98.0834 53.1598 98.4516 52.9658 98.7541C52.7751 99.0533 52.5072 99.2818 52.162 99.4396C51.82 99.5941 51.4206 99.6714 50.9636 99.6714ZM57.8383 98.7146V95.9628C57.8383 95.7096 57.7857 95.491 57.6805 95.3069C57.5753 95.1228 57.4207 94.9814 57.2169 94.8828C57.0131 94.7841 56.7616 94.7348 56.4624 94.7348C56.1862 94.7348 55.9396 94.7841 55.7226 94.8828C55.5089 94.9781 55.3396 95.108 55.2147 95.2724C55.093 95.4335 55.0322 95.6126 55.0322 95.8099L54.4404 95.805C54.4404 95.6044 54.4897 95.4104 54.5883 95.223C54.687 95.0356 54.8267 94.868 55.0075 94.72C55.1884 94.5721 55.4037 94.4554 55.6536 94.3699C55.9067 94.2811 56.1846 94.2367 56.487 94.2367C56.8684 94.2367 57.2038 94.3008 57.4931 94.4291C57.7857 94.5573 58.0142 94.7496 58.1786 95.0061C58.343 95.2625 58.4252 95.5847 58.4252 95.9727V98.5519C58.4252 98.736 58.4383 98.9267 58.4646 99.124C58.4942 99.3212 58.5353 99.484 58.5879 99.6122V99.6714H57.9616C57.9221 99.553 57.8909 99.4051 57.8679 99.2275C57.8482 99.0467 57.8383 98.8757 57.8383 98.7146ZM57.9764 96.5645L57.9862 97.0182H56.8273C56.5248 97.0182 56.2536 97.0461 56.0136 97.102C55.7769 97.1546 55.5763 97.2335 55.4119 97.3387C55.2475 97.4406 55.121 97.5639 55.0322 97.7086C54.9467 97.8533 54.904 98.0176 54.904 98.2018C54.904 98.3924 54.9516 98.5667 55.047 98.7245C55.1456 98.8823 55.2837 99.0089 55.4612 99.1042C55.6421 99.1963 55.8558 99.2423 56.1024 99.2423C56.4311 99.2423 56.7205 99.1815 56.9703 99.0599C57.2235 98.9382 57.4323 98.7788 57.5966 98.5815C57.761 98.3842 57.8712 98.1689 57.9271 97.9354L58.1835 98.2757C58.1408 98.4401 58.0619 98.6094 57.9468 98.7837C57.835 98.9547 57.6887 99.1158 57.5079 99.267C57.327 99.4149 57.1133 99.5366 56.8668 99.6319C56.6235 99.724 56.3473 99.77 56.0382 99.77C55.6897 99.77 55.3856 99.7043 55.1259 99.5728C54.8694 99.4412 54.6689 99.2621 54.5242 99.0352C54.3829 98.8051 54.3122 98.5453 54.3122 98.256C54.3122 97.993 54.3681 97.7579 54.4798 97.5508C54.5916 97.3404 54.7527 97.1628 54.9631 97.0182C55.1769 96.8702 55.4333 96.7584 55.7325 96.6828C56.035 96.6039 56.3736 96.5645 56.7484 96.5645H57.9764ZM63.2039 98.3103C63.2039 98.1656 63.1678 98.0226 63.0954 97.8812C63.0231 97.7398 62.8834 97.61 62.6762 97.4916C62.4724 97.3732 62.1716 97.273 61.7737 97.1908C61.4778 97.125 61.2132 97.051 60.9797 96.9688C60.7496 96.8867 60.5556 96.788 60.3978 96.6729C60.24 96.5579 60.12 96.4198 60.0378 96.2587C59.9556 96.0976 59.9145 95.9069 59.9145 95.6866C59.9145 95.4894 59.9573 95.3036 60.0427 95.1293C60.1315 94.9518 60.2564 94.7973 60.4175 94.6658C60.5819 94.531 60.7792 94.4258 61.0093 94.3501C61.2428 94.2745 61.5041 94.2367 61.7935 94.2367C62.2044 94.2367 62.5562 94.3074 62.8488 94.4488C63.1447 94.5869 63.37 94.7759 63.5245 95.0159C63.6823 95.2559 63.7612 95.5272 63.7612 95.8296H63.1743C63.1743 95.6455 63.1201 95.4713 63.0116 95.3069C62.9064 95.1425 62.7502 95.0077 62.5431 94.9025C62.3392 94.7973 62.0894 94.7447 61.7935 94.7447C61.4877 94.7447 61.2395 94.7907 61.0488 94.8828C60.8581 94.9748 60.7184 95.0915 60.6296 95.2329C60.5441 95.3743 60.5014 95.5206 60.5014 95.6718C60.5014 95.7902 60.5195 95.8987 60.5556 95.9973C60.5951 96.0927 60.6641 96.1814 60.7628 96.2636C60.8647 96.3458 61.0093 96.4231 61.1967 96.4954C61.3841 96.5677 61.6274 96.6384 61.9266 96.7075C62.3573 96.8028 62.7091 96.9195 62.982 97.0576C63.2582 97.1924 63.462 97.3601 63.5935 97.5606C63.725 97.7579 63.7908 97.9979 63.7908 98.2807C63.7908 98.5009 63.7448 98.7031 63.6527 98.8873C63.5606 99.0681 63.4275 99.2243 63.2532 99.3558C63.0823 99.4873 62.8751 99.5892 62.6318 99.6615C62.3918 99.7339 62.1222 99.77 61.8231 99.77C61.3726 99.77 60.9913 99.696 60.6789 99.5481C60.3699 99.3969 60.1348 99.1996 59.9737 98.9563C59.8159 98.7097 59.737 98.4483 59.737 98.1722H60.3238C60.3436 98.4483 60.4307 98.667 60.5852 98.8281C60.7397 98.9859 60.9288 99.0977 61.1524 99.1634C61.3792 99.2292 61.6028 99.2621 61.8231 99.2621C62.1255 99.2621 62.3787 99.2177 62.5825 99.1289C62.7864 99.0401 62.9409 98.9234 63.0461 98.7788C63.1513 98.6341 63.2039 98.4779 63.2039 98.3103ZM67.1887 99.77C66.8402 99.77 66.5196 99.7059 66.227 99.5777C65.9377 99.4495 65.6845 99.2686 65.4675 99.0352C65.2538 98.8018 65.0878 98.5256 64.9694 98.2067C64.8544 97.8845 64.7968 97.5327 64.7968 97.1513V96.9393C64.7968 96.5283 64.8577 96.1568 64.9793 95.8247C65.101 95.4926 65.2686 95.2083 65.4823 94.9715C65.696 94.7348 65.9393 94.554 66.2122 94.4291C66.4884 94.3008 66.7777 94.2367 67.0802 94.2367C67.4188 94.2367 67.7197 94.2975 67.9827 94.4192C68.2457 94.5375 68.466 94.7069 68.6435 94.9271C68.8243 95.1441 68.9608 95.4022 69.0528 95.7014C69.1449 95.9973 69.1909 96.3244 69.1909 96.6828V97.0428H65.1519V96.5398H68.6041V96.4708C68.5975 96.1716 68.5367 95.8921 68.4216 95.6324C68.3098 95.3694 68.1421 95.1556 67.9186 94.9913C67.695 94.8269 67.4155 94.7447 67.0802 94.7447C66.8303 94.7447 66.6002 94.7973 66.3898 94.9025C66.1826 95.0077 66.0034 95.1589 65.8522 95.3562C65.7043 95.5502 65.5892 95.782 65.507 96.0516C65.4281 96.3179 65.3886 96.6138 65.3886 96.9393V97.1513C65.3886 97.4472 65.4314 97.7234 65.5169 97.9798C65.6056 98.233 65.7306 98.4566 65.8917 98.6505C66.0561 98.8445 66.25 98.9958 66.4736 99.1042C66.6972 99.2127 66.9437 99.267 67.2133 99.267C67.529 99.267 67.8084 99.2095 68.0517 99.0944C68.295 98.976 68.5137 98.7903 68.7076 98.5371L69.0775 98.8231C68.9624 98.9941 68.8178 99.1519 68.6435 99.2966C68.4726 99.4412 68.2671 99.5563 68.0271 99.6418C67.7871 99.7273 67.5076 99.77 67.1887 99.77ZM73.8217 98.6357V92.0964H74.4135V99.6714H73.8612L73.8217 98.6357ZM70.1181 97.0576V96.9541C70.1181 96.5398 70.1658 96.1666 70.2611 95.8346C70.3564 95.4992 70.4929 95.2132 70.6704 94.9765C70.8513 94.7365 71.0682 94.554 71.3214 94.4291C71.5746 94.3008 71.8606 94.2367 72.1795 94.2367C72.4918 94.2367 72.768 94.2877 73.008 94.3896C73.248 94.4915 73.4535 94.6378 73.6245 94.8285C73.7987 95.0192 73.9385 95.2461 74.0437 95.5091C74.1522 95.7721 74.2311 96.0647 74.2804 96.3869V97.7037C74.2409 98.0061 74.1686 98.284 74.0634 98.5371C73.9582 98.787 73.8185 99.0056 73.6442 99.193C73.47 99.3771 73.2595 99.5201 73.013 99.6221C72.7697 99.7207 72.4886 99.77 72.1696 99.77C71.854 99.77 71.5696 99.7043 71.3165 99.5728C71.0633 99.4412 70.848 99.2555 70.6704 99.0155C70.4929 98.7722 70.3564 98.4845 70.2611 98.1524C70.1658 97.8204 70.1181 97.4554 70.1181 97.0576ZM70.7099 96.9541V97.0576C70.7099 97.37 70.7411 97.6593 70.8036 97.9256C70.866 98.1919 70.9614 98.4237 71.0896 98.6209C71.2178 98.8182 71.3806 98.9727 71.5778 99.0845C71.7751 99.1963 72.0085 99.2522 72.2781 99.2522C72.6168 99.2522 72.9012 99.1881 73.1313 99.0599C73.3615 98.9284 73.5456 98.7557 73.6837 98.542C73.8217 98.325 73.922 98.0883 73.9845 97.8319V96.2981C73.945 96.1239 73.8875 95.9464 73.8119 95.7655C73.7363 95.5847 73.6327 95.4187 73.5012 95.2674C73.373 95.1129 73.2086 94.9896 73.008 94.8976C72.8108 94.8022 72.5708 94.7545 72.288 94.7545C72.0151 94.7545 71.78 94.8104 71.5828 94.9222C71.3855 95.034 71.2211 95.1902 71.0896 95.3907C70.9614 95.588 70.866 95.8198 70.8036 96.0861C70.7411 96.3524 70.7099 96.6417 70.7099 96.9541ZM78.1073 97.0872V96.9245C78.1073 96.5365 78.1632 96.1781 78.275 95.8494C78.3868 95.5206 78.5463 95.2362 78.7534 94.9962C78.9638 94.7562 79.2153 94.5704 79.5079 94.4389C79.8005 94.3041 80.126 94.2367 80.4844 94.2367C80.846 94.2367 81.1732 94.3041 81.4658 94.4389C81.7584 94.5704 82.0099 94.7562 82.2203 94.9962C82.4307 95.2362 82.5918 95.5206 82.7036 95.8494C82.8154 96.1781 82.8713 96.5365 82.8713 96.9245V97.0872C82.8713 97.4752 82.8154 97.8335 82.7036 98.1623C82.5918 98.4878 82.4307 98.7705 82.2203 99.0105C82.0132 99.2506 81.7633 99.438 81.4707 99.5728C81.1781 99.7043 80.8526 99.77 80.4943 99.77C80.1326 99.77 79.8055 99.7043 79.5129 99.5728C79.2202 99.438 78.9687 99.2506 78.7583 99.0105C78.5479 98.7705 78.3868 98.4878 78.275 98.1623C78.1632 97.8335 78.1073 97.4752 78.1073 97.0872ZM78.6942 96.9245V97.0872C78.6942 97.3798 78.7337 97.6576 78.8126 97.9207C78.8915 98.1804 79.0065 98.4122 79.1578 98.616C79.309 98.8166 79.4964 98.9744 79.72 99.0895C79.9436 99.2045 80.2016 99.2621 80.4943 99.2621C80.7836 99.2621 81.0384 99.2045 81.2587 99.0895C81.4822 98.9744 81.6696 98.8166 81.8209 98.616C81.9721 98.4122 82.0855 98.1804 82.1611 97.9207C82.2401 97.6576 82.2795 97.3798 82.2795 97.0872V96.9245C82.2795 96.6351 82.2401 96.3606 82.1611 96.1009C82.0855 95.8411 81.9705 95.6094 81.8159 95.4055C81.6647 95.2017 81.4773 95.0406 81.2537 94.9222C81.0302 94.8039 80.7737 94.7447 80.4844 94.7447C80.1951 94.7447 79.9386 94.8039 79.7151 94.9222C79.4948 95.0406 79.3074 95.2017 79.1528 95.4055C79.0016 95.6094 78.8865 95.8411 78.8076 96.1009C78.732 96.3606 78.6942 96.6351 78.6942 96.9245ZM84.6812 95.4746V99.6714H84.0944V94.3354H84.6566L84.6812 95.4746ZM84.5481 96.6729L84.2867 96.525C84.3064 96.2094 84.3705 95.9135 84.479 95.6373C84.5875 95.3611 84.7338 95.1178 84.9179 94.9074C85.1053 94.697 85.324 94.5326 85.5738 94.4143C85.827 94.2959 86.1065 94.2367 86.4122 94.2367C86.6785 94.2367 86.9169 94.2729 87.1273 94.3452C87.3377 94.4175 87.5169 94.5326 87.6649 94.6904C87.8128 94.8482 87.9246 95.0504 88.0002 95.297C88.0791 95.5436 88.1186 95.8444 88.1186 96.1995V99.6714H87.5268V96.1946C87.5268 95.8264 87.4758 95.5387 87.3739 95.3315C87.272 95.1211 87.1273 94.9715 86.9399 94.8828C86.7525 94.794 86.5306 94.7496 86.2741 94.7496C85.9914 94.7496 85.7432 94.8121 85.5295 94.937C85.319 95.0587 85.1415 95.2181 84.9968 95.4154C84.8555 95.6094 84.747 95.8181 84.6714 96.0417C84.5957 96.262 84.5546 96.4724 84.5481 96.6729ZM96.8624 96.9886V98.1031H91.6891L91.62 97.2401L94.6135 92.4909H95.7429L94.5198 94.5375L93.0305 96.9886H96.8624ZM96.0486 92.4909V99.6714H94.6283V92.4909H96.0486ZM99.0372 98.473L99.0323 99.4248C99.0323 99.7897 98.9402 100.158 98.7561 100.529C98.5753 100.901 98.3452 101.205 98.0657 101.442L97.3259 101.062C97.4081 100.911 97.4887 100.76 97.5676 100.608C97.6465 100.457 97.7123 100.291 97.7649 100.11C97.8175 99.9295 97.8438 99.724 97.8438 99.4938V98.473H99.0372ZM104.955 97.7037C104.955 98.1541 104.85 98.5338 104.64 98.8429C104.429 99.1486 104.14 99.3804 103.772 99.5382C103.407 99.6928 102.992 99.77 102.529 99.77C102.065 99.77 101.649 99.6928 101.281 99.5382C100.913 99.3804 100.622 99.1486 100.408 98.8429C100.195 98.5338 100.088 98.1541 100.088 97.7037C100.088 97.4012 100.148 97.1283 100.27 96.885C100.392 96.6384 100.561 96.428 100.778 96.2538C100.998 96.0762 101.256 95.9414 101.552 95.8494C101.848 95.754 102.17 95.7063 102.519 95.7063C102.986 95.7063 103.403 95.7885 103.772 95.9529C104.14 96.1173 104.429 96.3491 104.64 96.6483C104.85 96.9475 104.955 97.2993 104.955 97.7037ZM103.525 97.61C103.525 97.3897 103.482 97.2006 103.397 97.0428C103.315 96.8817 103.198 96.7584 103.047 96.6729C102.895 96.5875 102.72 96.5447 102.519 96.5447C102.318 96.5447 102.143 96.5875 101.991 96.6729C101.84 96.7584 101.722 96.8817 101.636 97.0428C101.554 97.2006 101.513 97.3897 101.513 97.61C101.513 97.827 101.554 98.0144 101.636 98.1722C101.722 98.33 101.84 98.4516 101.991 98.5371C102.146 98.6193 102.325 98.6604 102.529 98.6604C102.733 98.6604 102.909 98.6193 103.057 98.5371C103.208 98.4516 103.323 98.33 103.402 98.1722C103.484 98.0144 103.525 97.827 103.525 97.61ZM104.802 94.3945C104.802 94.7595 104.705 95.0833 104.511 95.3661C104.317 95.6455 104.048 95.8642 103.703 96.022C103.361 96.1798 102.969 96.2587 102.529 96.2587C102.085 96.2587 101.69 96.1798 101.345 96.022C101 95.8642 100.73 95.6455 100.536 95.3661C100.342 95.0833 100.245 94.7595 100.245 94.3945C100.245 93.9605 100.342 93.5956 100.536 93.2997C100.734 93.0005 101.003 92.7737 101.345 92.6191C101.69 92.4646 102.082 92.3874 102.519 92.3874C102.963 92.3874 103.356 92.4646 103.698 92.6191C104.043 92.7737 104.312 93.0005 104.506 93.2997C104.704 93.5956 104.802 93.9605 104.802 94.3945ZM103.382 94.4586C103.382 94.2647 103.347 94.097 103.278 93.9556C103.209 93.811 103.111 93.6992 102.983 93.6203C102.858 93.5414 102.703 93.5019 102.519 93.5019C102.341 93.5019 102.189 93.5397 102.06 93.6153C101.935 93.691 101.838 93.8011 101.769 93.9458C101.704 94.0871 101.671 94.2581 101.671 94.4586C101.671 94.6526 101.704 94.8236 101.769 94.9715C101.838 95.1162 101.937 95.2296 102.065 95.3118C102.193 95.394 102.348 95.4351 102.529 95.4351C102.71 95.4351 102.863 95.394 102.987 95.3118C103.116 95.2296 103.213 95.1162 103.278 94.9715C103.347 94.8236 103.382 94.6526 103.382 94.4586ZM110.947 96.9886V98.1031H105.774L105.705 97.2401L108.698 92.4909H109.828L108.605 94.5375L107.115 96.9886H110.947ZM110.133 92.4909V99.6714H108.713V92.4909H110.133ZM113.171 95.4647H113.931C114.174 95.4647 114.375 95.4236 114.532 95.3414C114.69 95.2559 114.807 95.1376 114.883 94.9863C114.961 94.8318 115.001 94.6526 115.001 94.4488C115.001 94.2647 114.965 94.1019 114.892 93.9605C114.823 93.8159 114.717 93.7041 114.572 93.6252C114.427 93.543 114.245 93.5019 114.024 93.5019C113.85 93.5019 113.689 93.5364 113.541 93.6055C113.393 93.6745 113.275 93.7715 113.186 93.8964C113.097 94.0214 113.053 94.1726 113.053 94.3501H111.628C111.628 93.9556 111.733 93.612 111.943 93.3194C112.157 93.0268 112.443 92.7983 112.801 92.6339C113.16 92.4695 113.554 92.3874 113.985 92.3874C114.472 92.3874 114.897 92.4663 115.262 92.6241C115.627 92.7786 115.912 93.0071 116.116 93.3096C116.319 93.612 116.421 93.9868 116.421 94.434C116.421 94.6608 116.369 94.8811 116.263 95.0948C116.158 95.3052 116.007 95.4959 115.81 95.6669C115.616 95.8346 115.379 95.9694 115.1 96.0713C114.82 96.1699 114.506 96.2192 114.158 96.2192H113.171V95.4647ZM113.171 96.5447V95.8099H114.158C114.549 95.8099 114.892 95.8543 115.188 95.9431C115.484 96.0318 115.732 96.1601 115.933 96.3277C116.134 96.4921 116.285 96.6877 116.387 96.9146C116.489 97.1382 116.54 97.3864 116.54 97.6593C116.54 97.9946 116.476 98.2938 116.347 98.5568C116.219 98.8166 116.038 99.0368 115.805 99.2177C115.575 99.3985 115.305 99.5366 114.996 99.6319C114.687 99.724 114.35 99.77 113.985 99.77C113.683 99.77 113.385 99.7289 113.092 99.6467C112.803 99.5612 112.54 99.4347 112.303 99.267C112.07 99.096 111.883 98.8823 111.741 98.6259C111.603 98.3661 111.534 98.0587 111.534 97.7037H112.959C112.959 97.8878 113.005 98.0522 113.097 98.1968C113.189 98.3415 113.316 98.4549 113.477 98.5371C113.641 98.6193 113.824 98.6604 114.024 98.6604C114.251 98.6604 114.445 98.6193 114.606 98.5371C114.771 98.4516 114.896 98.3333 114.981 98.182C115.07 98.0275 115.114 97.8483 115.114 97.6445C115.114 97.3815 115.067 97.171 114.971 97.0132C114.876 96.8521 114.74 96.7338 114.562 96.6582C114.384 96.5825 114.174 96.5447 113.931 96.5447H113.171ZM121.511 95.4992V99.6714H120.09V94.3354H121.427L121.511 95.4992ZM123.118 94.3008L123.094 95.6176C123.025 95.6077 122.941 95.5995 122.842 95.5929C122.747 95.5831 122.66 95.5781 122.581 95.5781C122.38 95.5781 122.206 95.6044 122.058 95.657C121.913 95.7063 121.792 95.7803 121.693 95.879C121.598 95.9776 121.526 96.0976 121.476 96.239C121.43 96.3803 121.404 96.5414 121.397 96.7223L121.111 96.6335C121.111 96.2883 121.146 95.971 121.215 95.6817C121.284 95.3891 121.384 95.1343 121.516 94.9173C121.65 94.7003 121.815 94.5326 122.009 94.4143C122.203 94.2959 122.425 94.2367 122.675 94.2367C122.753 94.2367 122.834 94.2433 122.916 94.2564C122.998 94.2663 123.066 94.2811 123.118 94.3008ZM126.146 99.77C125.732 99.77 125.361 99.7043 125.032 99.5728C124.703 99.438 124.424 99.2522 124.194 99.0155C123.967 98.7788 123.792 98.5042 123.671 98.1919C123.549 97.8763 123.488 97.5409 123.488 97.1858V96.9886C123.488 96.5842 123.546 96.2143 123.661 95.879C123.776 95.5436 123.94 95.2526 124.154 95.0061C124.371 94.7595 124.634 94.5704 124.943 94.4389C125.252 94.3041 125.601 94.2367 125.989 94.2367C126.367 94.2367 126.702 94.2992 126.995 94.4241C127.287 94.5491 127.532 94.7266 127.73 94.9567C127.93 95.1869 128.081 95.4631 128.183 95.7853C128.285 96.1042 128.336 96.4592 128.336 96.8505V97.4423H124.095V96.4954H126.94V96.3869C126.94 96.1896 126.904 96.0138 126.832 95.8592C126.763 95.7014 126.658 95.5765 126.516 95.4844C126.375 95.3924 126.194 95.3463 125.974 95.3463C125.786 95.3463 125.625 95.3874 125.491 95.4696C125.356 95.5518 125.246 95.6669 125.16 95.8148C125.078 95.9628 125.015 96.137 124.973 96.3376C124.933 96.5349 124.914 96.7519 124.914 96.9886V97.1858C124.914 97.3995 124.943 97.5968 125.002 97.7776C125.065 97.9585 125.152 98.1146 125.264 98.2461C125.379 98.3777 125.517 98.4796 125.678 98.5519C125.842 98.6242 126.028 98.6604 126.235 98.6604C126.492 98.6604 126.73 98.6111 126.95 98.5125C127.174 98.4105 127.366 98.2576 127.527 98.0538L128.218 98.8034C128.106 98.9645 127.953 99.119 127.759 99.267C127.568 99.4149 127.338 99.5366 127.069 99.6319C126.799 99.724 126.492 99.77 126.146 99.77ZM130.891 98.6357L132.074 94.3354H133.559L131.759 99.6714H130.861L130.891 98.6357ZM130.077 94.3354L131.265 98.6407L131.29 99.6714H130.388L128.588 94.3354H130.077ZM135.694 94.3354V99.6714H134.269V94.3354H135.694ZM134.18 92.9446C134.18 92.7375 134.252 92.5665 134.397 92.4317C134.542 92.2969 134.736 92.2295 134.979 92.2295C135.219 92.2295 135.411 92.2969 135.556 92.4317C135.704 92.5665 135.778 92.7375 135.778 92.9446C135.778 93.1518 135.704 93.3227 135.556 93.4575C135.411 93.5923 135.219 93.6597 134.979 93.6597C134.736 93.6597 134.542 93.5923 134.397 93.4575C134.252 93.3227 134.18 93.1518 134.18 92.9446ZM139.324 99.77C138.91 99.77 138.538 99.7043 138.209 99.5728C137.88 99.438 137.601 99.2522 137.371 99.0155C137.144 98.7788 136.97 98.5042 136.848 98.1919C136.726 97.8763 136.666 97.5409 136.666 97.1858V96.9886C136.666 96.5842 136.723 96.2143 136.838 95.879C136.953 95.5436 137.118 95.2526 137.331 95.0061C137.548 94.7595 137.811 94.5704 138.12 94.4389C138.43 94.3041 138.778 94.2367 139.166 94.2367C139.544 94.2367 139.879 94.2992 140.172 94.4241C140.465 94.5491 140.71 94.7266 140.907 94.9567C141.107 95.1869 141.259 95.4631 141.361 95.7853C141.462 96.1042 141.513 96.4592 141.513 96.8505V97.4423H137.272V96.4954H140.118V96.3869C140.118 96.1896 140.082 96.0138 140.009 95.8592C139.94 95.7014 139.835 95.5765 139.694 95.4844C139.552 95.3924 139.371 95.3463 139.151 95.3463C138.964 95.3463 138.803 95.3874 138.668 95.4696C138.533 95.5518 138.423 95.6669 138.337 95.8148C138.255 95.9628 138.193 96.137 138.15 96.3376C138.111 96.5349 138.091 96.7519 138.091 96.9886V97.1858C138.091 97.3995 138.12 97.5968 138.18 97.7776C138.242 97.9585 138.329 98.1146 138.441 98.2461C138.556 98.3777 138.694 98.4796 138.855 98.5519C139.02 98.6242 139.205 98.6604 139.413 98.6604C139.669 98.6604 139.907 98.6111 140.128 98.5125C140.351 98.4105 140.544 98.2576 140.705 98.0538L141.395 98.8034C141.283 98.9645 141.13 99.119 140.936 99.267C140.746 99.4149 140.516 99.5366 140.246 99.6319C139.976 99.724 139.669 99.77 139.324 99.77ZM143.846 98.2905L144.956 94.3354H145.858L145.567 95.8888L144.458 99.6714H143.703L143.846 98.2905ZM143.284 94.3354L144.078 98.2856L144.152 99.6714H143.264L141.913 94.3354H143.284ZM146.874 98.2215L147.648 94.3354H149.024L147.673 99.6714H146.79L146.874 98.2215ZM145.982 94.3354L147.086 98.2609L147.239 99.6714H146.48L145.37 95.8937L145.089 94.3354H145.982ZM152.624 98.1968C152.624 98.0949 152.595 98.0028 152.536 97.9207C152.476 97.8385 152.366 97.7628 152.205 97.6938C152.047 97.6215 151.819 97.5557 151.52 97.4965C151.25 97.4374 150.999 97.3634 150.765 97.2746C150.535 97.1826 150.335 97.0724 150.164 96.9442C149.996 96.816 149.864 96.6647 149.769 96.4905C149.674 96.3129 149.626 96.1107 149.626 95.8839C149.626 95.6603 149.674 95.4499 149.769 95.2526C149.868 95.0554 150.007 94.8811 150.188 94.7299C150.372 94.5754 150.596 94.4554 150.859 94.3699C151.125 94.2811 151.424 94.2367 151.756 94.2367C152.22 94.2367 152.618 94.3107 152.95 94.4586C153.285 94.6066 153.542 94.8104 153.719 95.0702C153.9 95.3266 153.99 95.6192 153.99 95.948H152.57C152.57 95.8099 152.541 95.6866 152.481 95.5781C152.426 95.4663 152.337 95.3792 152.215 95.3167C152.097 95.251 151.942 95.2181 151.752 95.2181C151.594 95.2181 151.457 95.2461 151.342 95.302C151.227 95.3546 151.138 95.4269 151.076 95.5189C151.017 95.6077 150.987 95.7063 150.987 95.8148C150.987 95.897 151.004 95.971 151.036 96.0368C151.073 96.0992 151.13 96.1568 151.209 96.2094C151.288 96.262 151.39 96.3113 151.515 96.3573C151.643 96.4001 151.801 96.4395 151.988 96.4757C152.373 96.5546 152.716 96.6582 153.019 96.7864C153.321 96.9113 153.561 97.0823 153.739 97.2993C153.917 97.513 154.005 97.7941 154.005 98.1426C154.005 98.3793 153.953 98.5963 153.847 98.7936C153.742 98.9908 153.591 99.1634 153.394 99.3114C153.196 99.456 152.96 99.5695 152.684 99.6517C152.411 99.7306 152.103 99.77 151.761 99.77C151.265 99.77 150.844 99.6813 150.499 99.5037C150.157 99.3262 149.897 99.101 149.72 98.8281C149.545 98.5519 149.458 98.2692 149.458 97.9798H150.805C150.811 98.1738 150.861 98.33 150.953 98.4483C151.048 98.5667 151.168 98.6522 151.313 98.7048C151.461 98.7574 151.62 98.7837 151.791 98.7837C151.975 98.7837 152.128 98.759 152.25 98.7097C152.371 98.6571 152.463 98.5881 152.526 98.5026C152.592 98.4138 152.624 98.3119 152.624 98.1968Z" fill="white"/>
<path d="M91.3389 100.658H154.375V101.151H91.3389V100.658Z" fill="white"/>
<path d="M74.0571 124.489L78.0317 123.482L79.6924 128.6L74.0571 124.489ZM83.2042 117.874H76.2078L74.0571 111.286L71.9064 117.874H64.9099L70.5724 121.957L68.4218 128.545L74.0843 124.462L77.5689 121.957L83.2042 117.874Z" fill="#219653"/>
<path d="M90.4917 115.237V123.443H88.8065V115.237H90.4917ZM93.0167 115.237V116.561H86.3209V115.237H93.0167ZM95.1077 118.675V123.443H93.4845V117.345H95.0119L95.1077 118.675ZM96.9451 117.305L96.9169 118.81C96.838 118.799 96.7422 118.789 96.6295 118.782C96.5205 118.77 96.4209 118.765 96.3307 118.765C96.1015 118.765 95.9024 118.795 95.7333 118.855C95.568 118.911 95.429 118.996 95.3162 119.109C95.2073 119.221 95.1246 119.359 95.0682 119.52C95.0156 119.682 94.9856 119.866 94.9781 120.072L94.6512 119.971C94.6512 119.576 94.6906 119.214 94.7695 118.883C94.8484 118.549 94.963 118.258 95.1133 118.01C95.2674 117.762 95.4553 117.57 95.677 117.435C95.8986 117.299 96.1523 117.232 96.4378 117.232C96.528 117.232 96.6201 117.239 96.714 117.254C96.8079 117.266 96.885 117.283 96.9451 117.305ZM101.319 121.983V117.345H102.942V123.443H101.415L101.319 121.983ZM101.499 120.732L101.978 120.721C101.978 121.126 101.931 121.504 101.837 121.853C101.743 122.199 101.602 122.5 101.415 122.755C101.227 123.007 100.99 123.204 100.704 123.347C100.419 123.486 100.083 123.556 99.6955 123.556C99.3987 123.556 99.1244 123.514 98.8727 123.432C98.6247 123.345 98.4105 123.212 98.2301 123.031C98.0535 122.847 97.9145 122.612 97.8131 122.327C97.7154 122.038 97.6665 121.69 97.6665 121.284V117.345H99.2897V121.295C99.2897 121.476 99.3104 121.628 99.3517 121.752C99.3968 121.876 99.4588 121.977 99.5377 122.056C99.6166 122.135 99.7087 122.192 99.8139 122.225C99.9229 122.259 100.043 122.276 100.175 122.276C100.509 122.276 100.772 122.209 100.964 122.073C101.159 121.938 101.296 121.754 101.375 121.521C101.458 121.284 101.499 121.021 101.499 120.732ZM107.479 121.758C107.479 121.641 107.445 121.536 107.378 121.442C107.31 121.348 107.184 121.262 107 121.183C106.82 121.1 106.559 121.025 106.217 120.957C105.908 120.89 105.621 120.805 105.354 120.704C105.091 120.598 104.862 120.473 104.667 120.326C104.475 120.18 104.325 120.007 104.216 119.808C104.107 119.605 104.052 119.374 104.052 119.114C104.052 118.859 104.107 118.618 104.216 118.393C104.328 118.167 104.488 117.968 104.695 117.795C104.905 117.619 105.161 117.482 105.461 117.384C105.766 117.283 106.108 117.232 106.487 117.232C107.017 117.232 107.472 117.316 107.851 117.485C108.234 117.655 108.527 117.887 108.73 118.184C108.937 118.477 109.04 118.812 109.04 119.188H107.417C107.417 119.03 107.383 118.889 107.316 118.765C107.252 118.637 107.15 118.538 107.011 118.466C106.876 118.391 106.699 118.353 106.481 118.353C106.301 118.353 106.145 118.385 106.014 118.449C105.882 118.509 105.781 118.592 105.709 118.697C105.642 118.799 105.608 118.911 105.608 119.035C105.608 119.129 105.627 119.214 105.664 119.289C105.706 119.36 105.771 119.426 105.861 119.486C105.952 119.546 106.068 119.603 106.211 119.655C106.357 119.704 106.538 119.749 106.752 119.791C107.192 119.881 107.584 119.999 107.93 120.146C108.276 120.288 108.55 120.484 108.753 120.732C108.956 120.976 109.057 121.297 109.057 121.696C109.057 121.966 108.997 122.214 108.877 122.44C108.757 122.665 108.584 122.862 108.358 123.031C108.133 123.197 107.862 123.326 107.547 123.42C107.235 123.511 106.884 123.556 106.493 123.556C105.925 123.556 105.444 123.454 105.05 123.251C104.659 123.048 104.362 122.791 104.159 122.479C103.96 122.163 103.861 121.84 103.861 121.51H105.399C105.407 121.731 105.463 121.91 105.568 122.045C105.677 122.18 105.815 122.278 105.98 122.338C106.149 122.398 106.331 122.428 106.527 122.428C106.737 122.428 106.912 122.4 107.051 122.344C107.19 122.284 107.295 122.205 107.366 122.107C107.442 122.006 107.479 121.889 107.479 121.758ZM113.098 117.345V118.494H109.548V117.345H113.098ZM110.427 115.84H112.05V121.605C112.05 121.782 112.073 121.917 112.118 122.011C112.166 122.105 112.238 122.171 112.332 122.209C112.426 122.242 112.544 122.259 112.687 122.259C112.788 122.259 112.879 122.256 112.957 122.248C113.04 122.237 113.11 122.225 113.166 122.214L113.172 123.409C113.033 123.454 112.882 123.49 112.721 123.516C112.559 123.542 112.381 123.556 112.185 123.556C111.828 123.556 111.516 123.497 111.25 123.381C110.987 123.261 110.784 123.069 110.641 122.806C110.498 122.543 110.427 122.197 110.427 121.769V115.84ZM115.646 118.517V125.788H114.023V117.345H115.528L115.646 118.517ZM119.507 120.326V120.444C119.507 120.888 119.454 121.299 119.349 121.679C119.247 122.058 119.097 122.389 118.898 122.671C118.699 122.949 118.451 123.167 118.154 123.325C117.861 123.479 117.523 123.556 117.139 123.556C116.767 123.556 116.444 123.48 116.17 123.33C115.896 123.18 115.665 122.969 115.477 122.699C115.293 122.425 115.144 122.107 115.032 121.746C114.919 121.386 114.832 120.999 114.772 120.585V120.275C114.832 119.832 114.919 119.426 115.032 119.058C115.144 118.686 115.293 118.365 115.477 118.094C115.665 117.82 115.894 117.608 116.164 117.457C116.439 117.307 116.76 117.232 117.128 117.232C117.515 117.232 117.855 117.305 118.148 117.452C118.445 117.598 118.693 117.809 118.892 118.083C119.095 118.357 119.247 118.684 119.349 119.064C119.454 119.443 119.507 119.864 119.507 120.326ZM117.878 120.444V120.326C117.878 120.067 117.855 119.828 117.81 119.61C117.769 119.389 117.701 119.195 117.607 119.03C117.517 118.864 117.397 118.737 117.247 118.646C117.1 118.553 116.922 118.506 116.711 118.506C116.489 118.506 116.3 118.541 116.142 118.613C115.988 118.684 115.862 118.787 115.764 118.923C115.667 119.058 115.593 119.22 115.544 119.407C115.496 119.595 115.466 119.808 115.454 120.044V120.828C115.473 121.106 115.526 121.356 115.612 121.577C115.698 121.795 115.832 121.968 116.012 122.096C116.193 122.224 116.429 122.287 116.722 122.287C116.937 122.287 117.117 122.24 117.263 122.147C117.41 122.049 117.528 121.915 117.619 121.746C117.712 121.577 117.778 121.382 117.816 121.16C117.857 120.939 117.878 120.7 117.878 120.444ZM122.229 117.345V123.443H120.6V117.345H122.229ZM120.499 115.755C120.499 115.518 120.581 115.323 120.747 115.169C120.912 115.015 121.134 114.938 121.412 114.938C121.686 114.938 121.906 115.015 122.071 115.169C122.24 115.323 122.325 115.518 122.325 115.755C122.325 115.992 122.24 116.187 122.071 116.341C121.906 116.495 121.686 116.572 121.412 116.572C121.134 116.572 120.912 116.495 120.747 116.341C120.581 116.187 120.499 115.992 120.499 115.755ZM125.284 114.786V123.443H123.655V114.786H125.284ZM126.366 120.456V120.337C126.366 119.89 126.43 119.479 126.557 119.103C126.685 118.724 126.871 118.395 127.115 118.117C127.36 117.839 127.66 117.623 128.017 117.469C128.374 117.311 128.784 117.232 129.246 117.232C129.708 117.232 130.12 117.311 130.48 117.469C130.841 117.623 131.143 117.839 131.388 118.117C131.636 118.395 131.824 118.724 131.951 119.103C132.079 119.479 132.143 119.89 132.143 120.337V120.456C132.143 120.899 132.079 121.311 131.951 121.69C131.824 122.066 131.636 122.395 131.388 122.676C131.143 122.954 130.843 123.17 130.486 123.325C130.129 123.479 129.719 123.556 129.257 123.556C128.795 123.556 128.384 123.479 128.023 123.325C127.666 123.17 127.363 122.954 127.115 122.676C126.871 122.395 126.685 122.066 126.557 121.69C126.43 121.311 126.366 120.899 126.366 120.456ZM127.989 120.337V120.456C127.989 120.711 128.012 120.95 128.057 121.171C128.102 121.393 128.173 121.589 128.271 121.758C128.372 121.923 128.504 122.053 128.665 122.147C128.827 122.24 129.024 122.287 129.257 122.287C129.483 122.287 129.676 122.24 129.838 122.147C129.999 122.053 130.129 121.923 130.227 121.758C130.324 121.589 130.396 121.393 130.441 121.171C130.49 120.95 130.514 120.711 130.514 120.456V120.337C130.514 120.089 130.49 119.856 130.441 119.638C130.396 119.417 130.322 119.221 130.221 119.052C130.123 118.879 129.994 118.744 129.832 118.646C129.671 118.549 129.475 118.5 129.246 118.5C129.017 118.5 128.821 118.549 128.66 118.646C128.502 118.744 128.372 118.879 128.271 119.052C128.173 119.221 128.102 119.417 128.057 119.638C128.012 119.856 127.989 120.089 127.989 120.337ZM136.128 117.345V118.494H132.577V117.345H136.128ZM133.456 115.84H135.079V121.605C135.079 121.782 135.102 121.917 135.147 122.011C135.196 122.105 135.267 122.171 135.361 122.209C135.455 122.242 135.573 122.259 135.716 122.259C135.818 122.259 135.908 122.256 135.987 122.248C136.069 122.237 136.139 122.225 136.195 122.214L136.201 123.409C136.062 123.454 135.912 123.49 135.75 123.516C135.588 123.542 135.41 123.556 135.215 123.556C134.858 123.556 134.546 123.497 134.279 123.381C134.016 123.261 133.813 123.069 133.67 122.806C133.528 122.543 133.456 122.197 133.456 121.769V115.84Z" fill="white"/>
<defs>
<linearGradient id="paint0_linear_315_10469" x1="0" y1="14.4286" x2="28.8571" y2="14.4286" gradientUnits="userSpaceOnUse">
<stop stop-color="#219653"/>
<stop offset="0.7048" stop-color="#219653"/>
<stop offset="0.7049" stop-color="#219653" stop-opacity="0"/>
<stop offset="0.705" stop-color="#D9D9D9"/>
<stop offset="0.9998" stop-color="#D9D9D9"/>
<stop offset="0.9999" stop-color="#219653" stop-opacity="0"/>
<stop offset="1" stop-color="#D9D9D9"/>
</linearGradient>
<clipPath id="clip0_315_10469">
<rect width="173.143" height="28.8571" fill="white" transform="translate(14.4286 54.043)"/>
</clipPath>
</defs>
</svg>
