<svg width="193" height="57" viewBox="0 0 193 57" fill="none" xmlns="http://www.w3.org/2000/svg">
<g clip-path="url(#clip0_399_30849)">
<g clip-path="url(#clip1_399_30849)">
<path d="M185.318 56.8584H8.07881C4.17956 56.8584 0.989258 53.6681 0.989258 49.7688V7.23154C0.989258 3.33228 4.17956 0.141987 8.07881 0.141987H185.318C189.217 0.141987 192.407 3.33228 192.407 7.23154V49.7688C192.407 53.6681 189.217 56.8584 185.318 56.8584Z" fill="white"/>
<path d="M185.318 0.141987H8.07881C4.17956 0.141987 0.989258 3.33228 0.989258 7.23154V49.7688C0.989258 53.6681 4.17956 56.8584 8.07881 56.8584H185.318C189.217 56.8584 192.407 53.6681 192.407 49.7688V7.23154C192.407 3.33228 189.217 0.141987 185.318 0.141987ZM185.318 1.27631C188.601 1.27631 191.273 3.94822 191.273 7.23154V49.7688C191.273 53.0527 188.601 55.7246 185.318 55.7246H8.07881C4.7955 55.7246 2.12359 53.0527 2.12359 49.7688V7.23154C2.12359 3.94822 4.7955 1.27631 8.07881 1.27631H185.318Z" fill="black"/>
<path d="M30.2219 27.5411L15.1265 43.5631C15.127 43.5664 15.1282 43.5692 15.1287 43.5725C15.5917 45.3122 17.1807 46.5933 19.0666 46.5933C19.8205 46.5933 20.5283 46.3894 21.1353 46.0316L21.1835 46.0034L38.1753 36.1985L30.2219 27.5411Z" fill="#EB3131"/>
<path d="M45.4941 24.8128L45.4796 24.8029L38.1438 20.5502L29.8792 27.9045L38.1726 36.1968L45.4697 31.9864C46.749 31.2958 47.6175 29.9471 47.6175 28.3918C47.6175 26.8477 46.7607 25.5057 45.4941 24.8128Z" fill="#F6B60B"/>
<path d="M15.126 13.1539C15.0352 13.4886 14.9875 13.8391 14.9875 14.203V42.5146C14.9875 42.8779 15.0347 43.2296 15.1266 43.563L30.7415 27.9509L15.126 13.1539Z" fill="#5778C5"/>
<path d="M30.3333 28.3584L38.1466 20.5473L21.1741 10.707C20.5571 10.3375 19.8371 10.1242 19.0667 10.1242C17.1808 10.1242 15.5896 11.4076 15.1265 13.1494C15.126 13.1511 15.126 13.1523 15.126 13.1538L30.3333 28.3584Z" fill="#3BAD49"/>
</g>
<path d="M68.1988 14.666C68.1988 15.854 67.847 16.8 67.1424 17.5057C66.3422 18.3448 65.2991 18.7646 64.0169 18.7646C62.789 18.7646 61.745 18.3393 60.8865 17.4874C60.0264 16.6361 59.5972 15.5804 59.5972 14.3209C59.5972 13.0608 60.0264 12.0058 60.8865 11.1539C61.745 10.3026 62.789 9.87662 64.0169 9.87662C64.6262 9.87662 65.2095 9.99572 65.7634 10.2334C66.3172 10.4716 66.7614 10.7878 67.0938 11.1838L66.346 11.932C65.7828 11.2591 65.0073 10.9229 64.0169 10.9229C63.1214 10.9229 62.3471 11.2375 61.6935 11.8672C61.0399 12.4976 60.7132 13.3151 60.7132 14.3209C60.7132 15.3268 61.0399 16.1442 61.6935 16.7746C62.3471 17.4043 63.1214 17.7189 64.0169 17.7189C64.9669 17.7189 65.759 17.4026 66.3931 16.7691C66.8047 16.3563 67.0428 15.7826 67.1064 15.0459H64.0169V14.024H68.1395C68.1793 14.2462 68.1988 14.4594 68.1988 14.666Z" fill="black"/>
<path d="M68.1987 14.6658H68.0569C68.0558 15.8267 67.7168 16.7283 67.0421 17.4052L67.0406 17.4064L67.04 17.4075C66.2651 18.2177 65.2692 18.621 64.0169 18.6227C62.8217 18.621 61.8214 18.2133 60.9861 17.387C60.1526 16.5589 59.7405 15.5481 59.7389 14.3207C59.7405 13.0928 60.1526 12.0826 60.9861 11.2551C61.8214 10.4281 62.8217 10.0199 64.0169 10.0182C64.6079 10.0182 65.1706 10.1335 65.7073 10.3633C66.2446 10.5949 66.6689 10.8983 66.9851 11.2751L67.0937 11.1836L66.9935 11.0834L66.2457 11.8322L66.3459 11.9318L66.4551 11.8411C65.8657 11.1348 65.0383 10.7788 64.0169 10.7809C63.0881 10.7798 62.2711 11.1116 61.5954 11.7652C60.9131 12.421 60.5702 13.2844 60.5714 14.3207C60.5702 15.3571 60.9131 16.2204 61.5954 16.8762C62.2711 17.5299 63.0881 17.8617 64.0169 17.8605C64.9984 17.8622 65.8348 17.5293 66.4933 16.8691C66.9331 16.4282 67.1824 15.8173 67.2477 15.0579L67.2609 14.9039H64.1587V14.1656H68.1395V14.0238L67.9998 14.0488C68.0386 14.2637 68.0569 14.468 68.0569 14.6658H68.1987H68.3405C68.3405 14.4503 68.3205 14.2288 68.279 13.9984L68.258 13.882H63.8751V15.0457V15.1875H67.1064V15.0457L66.9651 15.0335C66.9026 15.747 66.6755 16.2842 66.2928 16.6686C65.6835 17.2757 64.9358 17.5753 64.0169 17.577C63.1545 17.5758 62.4229 17.2789 61.792 16.6725C61.1673 16.0682 60.8565 15.2967 60.8549 14.3207C60.8565 13.3448 61.1673 12.5733 61.792 11.969C62.4229 11.3625 63.1545 11.0656 64.0169 11.0645C64.9757 11.0668 65.6997 11.3835 66.2375 12.0233L66.3372 12.1418L67.194 11.2838L67.2859 11.192L67.2022 11.0927C66.8538 10.6774 66.3898 10.3477 65.8192 10.103C65.2476 9.85757 64.6444 9.73464 64.0169 9.73464C62.7564 9.73351 61.6685 10.1766 60.7862 11.0534C59.9005 11.9286 59.4542 13.0286 59.4553 14.3207C59.4542 15.6123 59.9005 16.7129 60.7867 17.5886C61.6685 18.4649 62.7564 18.9074 64.0169 18.9062C65.3296 18.9074 66.4185 18.4714 67.2449 17.6035L67.1424 17.5055L67.2426 17.6057C67.9771 16.8718 68.3415 15.8804 68.3405 14.6658H68.1987Z" fill="black"/>
<path d="M74.7343 11.1124H70.86V13.8098H74.3539V14.8321H70.86V17.5296H74.7343V18.5747H69.7678V10.0672H74.7343V11.1124Z" fill="black"/>
<path d="M74.7343 11.1122V10.9704H70.7182V13.9514H74.2121V14.6897L70.7182 14.6902V17.6712H74.5925V18.4327H69.9096V10.2088H74.5925V11.1122H74.7343V10.9704V11.1122H74.8761V10.0671V9.92526H69.626V18.7163H74.8761V17.5294V17.3876H71.0018V14.9737H74.4957V13.8096V13.6678H71.0018V11.254H74.8761V11.1122H74.7343Z" fill="black"/>
<path d="M79.3441 18.5747H78.2502V11.1124H75.874V10.0672H81.7202V11.1124H79.3441V18.5747Z" fill="black"/>
<path d="M79.3443 18.5745V18.4327H78.3921V10.9704H76.016V10.2088H81.5786V10.9704H79.2025V18.5745H79.3443V18.4327V18.5745H79.4861V11.254H81.8622V10.0671V9.92526H75.7324V11.1122V11.254H78.1086V18.7163H79.3443H79.4861V18.5745H79.3443Z" fill="black"/>
<path d="M85.9502 18.5747V10.0672H87.043V18.5747H85.9502Z" fill="black"/>
<path d="M85.9501 18.5745H86.0919V10.2088H86.9011V18.4327H85.9501V18.5745H86.0919H85.9501V18.7163H87.0429H87.1847V9.92526H85.9501H85.8083V18.7163H85.9501V18.5745Z" fill="black"/>
<path d="M91.892 18.5747H90.7981V11.1124H88.4221V10.0672H94.2682V11.1124H91.892V18.5747Z" fill="black"/>
<path d="M91.8922 18.5745V18.4327H90.9401V10.9704H88.5641V10.2088H94.1266V10.9704H91.7504V18.5745H91.8922V18.4327V18.5745H92.034V11.254H94.4101V10.0671V9.92526H88.2805V11.1122V11.254H90.6565V18.7163H91.8922H92.034V18.5745H91.8922Z" fill="black"/>
<path d="M99.9044 16.763C100.534 17.4005 101.305 17.7189 102.216 17.7189C103.127 17.7189 103.898 17.4005 104.526 16.763C105.157 16.1255 105.472 15.3106 105.472 14.3209C105.472 13.3312 105.157 12.5163 104.526 11.8788C103.898 11.2414 103.127 10.9229 102.216 10.9229C101.305 10.9229 100.534 11.2414 99.9044 11.8788C99.2757 12.5163 98.96 13.3312 98.96 14.3209C98.96 15.3106 99.2757 16.1255 99.9044 16.763ZM105.335 17.4752C104.499 18.3353 103.458 18.7646 102.216 18.7646C100.972 18.7646 99.932 18.3353 99.0974 17.4752C98.2604 16.6161 97.844 15.5644 97.844 14.3209C97.844 13.0774 98.2604 12.0256 99.0974 11.1666C99.932 10.3064 100.972 9.87662 102.216 9.87662C103.452 9.87662 104.489 10.3087 105.33 11.1722C106.169 12.0357 106.589 13.0852 106.589 14.3209C106.589 15.5644 106.17 16.6161 105.335 17.4752Z" fill="black"/>
<path d="M99.9046 16.7628L99.8037 16.8625C100.457 17.5255 101.272 17.8622 102.216 17.8605C103.16 17.8622 103.976 17.5255 104.627 16.8625C105.285 16.1989 105.615 15.3403 105.614 14.3207C105.615 13.3011 105.285 12.4426 104.627 11.779C103.976 11.116 103.16 10.7792 102.216 10.7809C101.272 10.7792 100.457 11.116 99.8037 11.779C99.1479 12.4426 98.8167 13.3011 98.8184 14.3207C98.8167 15.3403 99.1479 16.1989 99.8037 16.8625L99.9046 16.7628L100.005 16.6631C99.4039 16.051 99.1031 15.2811 99.102 14.3207C99.1031 13.3604 99.4039 12.5905 100.005 11.9783C100.612 11.3664 101.337 11.0662 102.216 11.0645C103.094 11.0662 103.82 11.3664 104.426 11.9783C105.028 12.5905 105.329 13.3604 105.33 14.3207C105.329 15.2811 105.028 16.051 104.426 16.6631C103.82 17.2751 103.094 17.5753 102.216 17.577C101.337 17.5753 100.612 17.2751 100.005 16.6631L99.9046 16.7628ZM105.335 17.475L105.234 17.3765C104.421 18.2095 103.427 18.621 102.216 18.6227C101.005 18.621 100.01 18.2095 99.1989 17.3765L99.195 17.3721L99.1989 17.3765C98.3875 16.5406 97.9871 15.5326 97.986 14.3207C97.9871 13.1088 98.3875 12.1008 99.1989 11.265C100.01 10.432 101.005 10.0199 102.216 10.0182C103.419 10.0199 104.411 10.4337 105.228 11.2711C106.043 12.1108 106.445 13.1172 106.447 14.3207C106.445 15.5326 106.044 16.5406 105.234 17.3765L105.335 17.475L105.437 17.5736C106.297 16.6908 106.732 15.5957 106.731 14.3207C106.732 13.053 106.295 11.9602 105.432 11.0734C104.568 10.1833 103.485 9.73308 102.216 9.73464C100.94 9.73308 99.8542 10.1811 98.9957 11.0679V11.0673C98.1344 11.9507 97.7013 13.0457 97.7024 14.3207C97.7013 15.5957 98.1344 16.6908 98.9957 17.5741L98.9995 17.5781L98.9957 17.5736C99.8542 18.4603 100.94 18.9074 102.216 18.9062C103.491 18.9074 104.577 18.4603 105.437 17.5736L105.335 17.475Z" fill="black"/>
<path d="M108.123 18.5747V10.0672H109.453L113.588 16.6855H113.635L113.588 15.046V10.0672H114.682V18.5747H113.541L109.215 11.6357H109.168L109.215 13.2758V18.5747H108.123Z" fill="black"/>
<path d="M108.123 18.5745H108.265V10.2088H109.374L113.509 16.8271H113.635H113.78L113.73 15.0436V10.2088H114.54V18.4327H113.619L109.294 11.4938H109.168H109.022L109.073 13.2779V18.4327H108.123V18.5745H108.265H108.123V18.7163H109.215H109.357V13.2734L109.31 11.6317L109.168 11.6355V11.7773H109.215V11.6355L109.095 11.711L113.462 18.7163H114.682H114.824V9.92526H113.588H113.446V15.0475L113.493 16.6891L113.635 16.6853V16.5435H113.588V16.6853L113.708 16.61L109.532 9.92526H108.123H107.981V18.7163H108.123V18.5745Z" fill="black"/>
<path d="M152.589 42.6793H155.235V24.9537H152.589V42.6793ZM176.42 31.3389L173.387 39.0238H173.296L170.149 31.3389H167.299L172.019 42.0799L169.328 48.0546H172.088L179.362 31.3389H176.42ZM161.416 40.666C160.548 40.666 159.34 40.2328 159.34 39.1606C159.34 37.7925 160.846 37.268 162.145 37.268C163.309 37.268 163.855 37.5188 164.562 37.8612C164.357 39.5029 162.943 40.666 161.416 40.666ZM161.735 30.9511C159.819 30.9511 157.836 31.7951 157.015 33.6651L159.363 34.6454C159.865 33.6651 160.799 33.3455 161.78 33.3455C163.148 33.3455 164.539 34.1669 164.562 35.6263V35.8085C164.083 35.5349 163.058 35.1245 161.803 35.1245C159.272 35.1245 156.694 36.5152 156.694 39.1151C156.694 41.4868 158.77 43.0149 161.095 43.0149C162.875 43.0149 163.855 42.2168 164.471 41.2819H164.562V42.6499H167.116V35.8539C167.116 32.7074 164.768 30.9511 161.735 30.9511ZM145.383 33.4966H141.62V27.4207H145.383C147.361 27.4207 148.484 29.0584 148.484 30.4586C148.484 31.8323 147.361 33.4966 145.383 33.4966ZM145.315 24.9537H138.976V42.6793H141.62V35.9636H145.315C148.248 35.9636 151.13 33.8406 151.13 30.4586C151.13 27.0768 148.248 24.9537 145.315 24.9537ZM110.745 40.6693C108.918 40.6693 107.387 39.1389 107.387 37.037C107.387 34.913 108.918 33.3594 110.745 33.3594C112.55 33.3594 113.966 34.913 113.966 37.037C113.966 39.1389 112.55 40.6693 110.745 40.6693ZM113.783 32.3314H113.692C113.098 31.6234 111.956 30.9838 110.517 30.9838C107.501 30.9838 104.738 33.6335 104.738 37.037C104.738 40.4179 107.501 43.0448 110.517 43.0448C111.956 43.0448 113.098 42.4051 113.692 41.6746H113.783V42.5425C113.783 44.85 112.55 46.0834 110.563 46.0834C108.941 46.0834 107.936 44.918 107.524 43.936L105.217 44.8954C105.88 46.4943 107.639 48.459 110.563 48.459C113.669 48.459 116.296 46.6312 116.296 42.1769V31.3493H113.783V32.3314ZM118.123 42.6793H120.773V24.9531H118.123V42.6793ZM124.68 36.8316C124.611 34.5014 126.484 33.3139 127.832 33.3139C128.883 33.3139 129.774 33.8389 130.07 34.5934L124.68 36.8316ZM132.903 34.8215C132.401 33.4734 130.87 30.9838 127.74 30.9838C124.634 30.9838 122.053 33.428 122.053 37.0143C122.053 40.3952 124.611 43.0448 128.037 43.0448C130.802 43.0448 132.401 41.3544 133.063 40.3724L131.007 39.0015C130.322 40.0068 129.385 40.6693 128.037 40.6693C126.69 40.6693 125.73 40.0523 125.113 38.842L133.177 35.5067L132.903 34.8215ZM68.6601 32.8342V35.3925H74.7819C74.5991 36.8316 74.1194 37.8822 73.3884 38.6133C72.4978 39.5045 71.1043 40.4865 68.6601 40.4865C64.8908 40.4865 61.9443 37.4485 61.9443 33.6794C61.9443 29.9103 64.8908 26.8719 68.6601 26.8719C70.6932 26.8719 72.1776 27.6716 73.2742 28.6996L75.0788 26.8951C73.5484 25.4328 71.5152 24.3135 68.6601 24.3135C63.4973 24.3135 59.1572 28.5168 59.1572 33.6794C59.1572 38.842 63.4973 43.0448 68.6601 43.0448C71.4471 43.0448 73.5485 42.1316 75.1929 40.4179C76.8834 38.7274 77.409 36.3519 77.409 34.4333C77.409 33.8389 77.3635 33.2912 77.2716 32.8342H68.6601ZM84.3689 40.6693C82.5411 40.6693 80.9648 39.1616 80.9648 37.0143C80.9648 34.8442 82.5411 33.3594 84.3689 33.3594C86.1961 33.3594 87.7724 34.8442 87.7724 37.0143C87.7724 39.1616 86.1961 40.6693 84.3689 40.6693ZM84.3689 30.9838C81.0335 30.9838 78.315 33.5193 78.315 37.0143C78.315 40.4865 81.0335 43.0448 84.3689 43.0448C87.7037 43.0448 90.4222 40.4865 90.4222 37.0143C90.4222 33.5193 87.7037 30.9838 84.3689 30.9838ZM97.5742 40.6693C95.7471 40.6693 94.1707 39.1616 94.1707 37.0143C94.1707 34.8442 95.7471 33.3594 97.5742 33.3594C99.4015 33.3594 100.978 34.8442 100.978 37.0143C100.978 39.1616 99.4015 40.6693 97.5742 40.6693ZM97.5742 30.9838C94.2389 30.9838 91.521 33.5193 91.521 37.0143C91.521 40.4865 94.2389 43.0448 97.5742 43.0448C100.909 43.0448 103.628 40.4865 103.628 37.0143C103.628 33.5193 100.909 30.9838 97.5742 30.9838Z" fill="black"/>
</g>
<defs>
<clipPath id="clip0_399_30849">
<rect width="191.843" height="57" fill="white" transform="translate(0.821777)"/>
</clipPath>
<clipPath id="clip1_399_30849">
<rect width="191.843" height="57" fill="white" transform="translate(0.847412)"/>
</clipPath>
</defs>
</svg>
