<svg width="175" height="59" viewBox="0 0 175 59" fill="none" xmlns="http://www.w3.org/2000/svg">
<g clip-path="url(#clip0_399_30848)">
<path d="M160.9 0.000189922H13.9296C13.3938 0.000189922 12.8645 0.000189922 12.3302 0.0031118C11.883 0.00603367 11.4393 0.0145217 10.9877 0.0216657C10.0067 0.0332097 9.02801 0.119514 8.06013 0.279828C7.09361 0.443632 6.15737 0.752449 5.28307 1.19583C4.40984 1.64297 3.61194 2.22398 2.91832 2.91778C2.22107 3.60963 1.63985 4.40932 1.19702 5.28609C0.752967 6.16112 0.44506 7.09879 0.283933 8.06672C0.121274 9.03343 0.0337453 10.0113 0.0221332 10.9915C0.0085757 11.4394 0.00714398 11.8889 0 12.3368V46.1053C0.00714398 46.5589 0.0085757 46.9984 0.0221332 47.4521C0.0337488 48.4323 0.121277 49.4101 0.283933 50.3768C0.444616 51.3453 0.75254 52.2835 1.19702 53.1588C1.63965 54.0328 2.22095 54.8292 2.91832 55.5172C3.60931 56.2141 4.40772 56.7955 5.28307 57.2392C6.15736 57.6838 7.0935 57.9945 8.06013 58.1608C9.02818 58.3198 10.0068 58.4062 10.9877 58.4191C11.4393 58.429 11.883 58.4347 12.3302 58.4347C12.8645 58.4377 13.3939 58.4377 13.9296 58.4377H160.9C161.425 58.4377 161.959 58.4377 162.484 58.4347C162.929 58.4347 163.385 58.429 163.83 58.4191C164.809 58.4069 165.786 58.3205 166.752 58.1608C167.722 57.9933 168.662 57.6827 169.54 57.2392C170.415 56.7953 171.212 56.2139 171.903 55.5172C172.598 54.8265 173.181 54.0307 173.629 53.1588C174.07 52.2829 174.375 51.3447 174.533 50.3768C174.696 49.41 174.787 48.4324 174.805 47.4521C174.81 46.9984 174.81 46.5589 174.81 46.1053C174.822 45.5745 174.822 45.0467 174.822 44.5073V13.9319C174.822 13.3969 174.822 12.8661 174.81 12.3368C174.81 11.8889 174.81 11.4394 174.805 10.9915C174.787 10.0111 174.696 9.03351 174.533 8.06666C174.375 7.09929 174.07 6.16169 173.629 5.28603C172.727 3.52864 171.297 2.09813 169.54 1.1957C168.662 0.753401 167.722 0.444666 166.752 0.279696C165.786 0.118676 164.81 0.0323419 163.83 0.0214612C163.385 0.0143318 162.929 0.0057707 162.484 0.00292187C161.959 0 161.425 0 160.9 0V0.000189922Z" fill="#A6A6A6"/>
<path d="M12.3373 57.1591C11.8922 57.1591 11.4579 57.1534 11.0162 57.1435C10.1014 57.1316 9.18864 57.0519 8.28553 56.9052C7.44344 56.7602 6.62767 56.4904 5.86514 56.1048C5.10961 55.7223 4.4205 55.2209 3.82421 54.6196C3.2193 54.0254 2.71568 53.3362 2.33331 52.5794C1.94673 51.8176 1.6792 51.0011 1.54002 50.1583C1.38973 49.2527 1.30841 48.337 1.29678 47.4191C1.28752 47.111 1.27539 46.0851 1.27539 46.0851V12.3366C1.27539 12.3366 1.28831 11.3265 1.29685 11.0298C1.30799 10.1133 1.38884 9.19901 1.53868 8.2948C1.67811 7.44968 1.94585 6.63082 2.33264 5.86658C2.7136 5.11027 3.21443 4.42059 3.8157 3.82427C4.41629 3.22227 5.10761 2.71823 5.86443 2.3305C6.6252 1.94611 7.43943 1.67823 8.27982 1.53584C9.18589 1.38765 10.1018 1.30753 11.0198 1.29616L12.3381 1.27832H162.476L163.81 1.29687C164.72 1.30768 165.628 1.38709 166.525 1.53441C167.374 1.67858 168.197 1.94833 168.966 2.33478C170.483 3.11616 171.716 4.35237 172.495 5.87015C172.875 6.62911 173.139 7.44129 173.277 8.27911C173.428 9.19074 173.513 10.1122 173.53 11.0362C173.535 11.4499 173.535 11.8944 173.535 12.3366C173.546 12.8845 173.546 13.4059 173.546 13.9317V44.5071C173.546 45.0379 173.546 45.5558 173.535 46.0779C173.535 46.553 173.535 46.9883 173.529 47.4362C173.512 48.3437 173.428 49.2487 173.279 50.144C173.143 50.9929 172.877 51.8158 172.49 52.5838C172.105 53.3324 171.605 54.0156 171.007 54.6082C170.41 55.2127 169.72 55.7171 168.962 56.102C168.195 56.4906 167.373 56.7614 166.525 56.9052C165.622 57.0527 164.71 57.1324 163.795 57.1435C163.367 57.1534 162.919 57.1591 162.484 57.1591L160.9 57.1621L12.3373 57.1591Z" fill="black"/>
<path d="M36.1858 29.6584C36.2015 28.439 36.5254 27.2434 37.1274 26.1828C37.7293 25.1223 38.5897 24.2312 39.6286 23.5925C38.9686 22.65 38.098 21.8743 37.0858 21.3271C36.0736 20.7799 34.9478 20.4762 33.7978 20.4403C31.3445 20.1828 28.9662 21.9083 27.716 21.9083C26.4417 21.9083 24.5169 20.4658 22.4442 20.5085C21.1036 20.5518 19.797 20.9416 18.6518 21.6401C17.5066 22.3385 16.5618 23.3216 15.9096 24.4937C13.0841 29.3855 15.1917 36.5749 17.8982 40.5291C19.2524 42.4653 20.835 44.6282 22.9058 44.5515C24.9322 44.4674 25.689 43.2593 28.135 43.2593C30.5584 43.2593 31.2684 44.5515 33.3813 44.5027C35.5557 44.4674 36.9257 42.5578 38.2323 40.6033C39.2053 39.2236 39.9539 37.6988 40.4506 36.0853C39.1873 35.551 38.1093 34.6566 37.3509 33.5138C36.5925 32.3709 36.1873 31.03 36.1858 29.6584Z" fill="white"/>
<path d="M32.1949 17.8393C33.3805 16.4161 33.9646 14.5867 33.8232 12.7397C32.0118 12.93 30.3387 13.7957 29.1371 15.1643C28.5496 15.833 28.0996 16.6108 27.8129 17.4534C27.5262 18.2961 27.4084 19.1869 27.4662 20.0751C28.3722 20.0844 29.2685 19.8881 30.0876 19.5008C30.9067 19.1135 31.6272 18.5454 32.1949 17.8393Z" fill="white"/>
<path d="M61.8008 39.6495H54.8856L53.2249 44.553H50.2959L56.8459 26.4111H59.889L66.439 44.553H63.46L61.8008 39.6495ZM55.6018 37.3867H61.0832L58.381 29.4286H58.3054L55.6018 37.3867Z" fill="white"/>
<path d="M80.5846 37.9406C80.5846 42.0509 78.3847 44.6917 75.0647 44.6917C74.2237 44.7357 73.3874 44.5419 72.6513 44.1327C71.9153 43.7234 71.3095 43.1152 70.9031 42.3775H70.8402V48.9289H68.1252V31.3264H70.7533V33.5263H70.8032C71.2283 32.7923 71.8444 32.1872 72.586 31.7754C73.3276 31.3637 74.167 31.1606 75.0148 31.188C78.3718 31.188 80.5846 33.8416 80.5846 37.9406ZM77.794 37.9406C77.794 35.2627 76.4101 33.5021 74.2986 33.5021C72.2242 33.5021 70.8289 35.2997 70.8289 37.9406C70.8289 40.6056 72.2242 42.3904 74.2986 42.3904C76.4101 42.3904 77.794 40.6427 77.794 37.9406Z" fill="white"/>
<path d="M95.1427 37.9405C95.1427 42.0509 92.9428 44.6917 89.6228 44.6917C88.7818 44.7357 87.9455 44.5419 87.2095 44.1327C86.4734 43.7234 85.8676 43.1151 85.4612 42.3775H85.3984V48.9289H82.6833V31.3264H85.3113V33.5263H85.3612C85.7863 32.7923 86.4024 32.1872 87.1441 31.7754C87.8857 31.3636 88.725 31.1606 89.5729 31.188C92.9299 31.188 95.1427 33.8416 95.1427 37.9405ZM92.3521 37.9405C92.3521 35.2626 90.9682 33.5021 88.8567 33.5021C86.7823 33.5021 85.387 35.2997 85.387 37.9405C85.387 40.6056 86.7823 42.3904 88.8567 42.3904C90.9682 42.3904 92.3521 40.6427 92.3521 37.9405H92.3521Z" fill="white"/>
<path d="M104.764 39.498C104.966 41.2971 106.713 42.4783 109.102 42.4783C111.39 42.4783 113.036 41.297 113.036 39.6749C113.036 38.2667 112.043 37.4236 109.692 36.8457L107.341 36.2793C104.01 35.4747 102.463 33.9167 102.463 31.3886C102.463 28.2584 105.191 26.1084 109.064 26.1084C112.898 26.1084 115.526 28.2584 115.614 31.3886H112.874C112.71 29.5781 111.213 28.4853 109.026 28.4853C106.839 28.4853 105.342 29.591 105.342 31.2003C105.342 32.4829 106.298 33.2376 108.636 33.8154L110.635 34.3062C114.357 35.1864 115.904 36.6816 115.904 39.3353C115.904 42.7294 113.2 44.8551 108.9 44.8551C104.877 44.8551 102.161 42.7793 101.985 39.4979L104.764 39.498Z" fill="white"/>
<path d="M121.763 28.1958V31.326H124.279V33.476H121.763V40.7678C121.763 41.9006 122.267 42.4285 123.373 42.4285C123.671 42.4233 123.969 42.4023 124.266 42.3657V44.5029C123.769 44.5958 123.263 44.6378 122.758 44.6284C120.08 44.6284 119.035 43.6226 119.035 41.0574V33.476H117.112V31.326H119.035V28.1958H121.763Z" fill="white"/>
<path d="M125.735 37.9399C125.735 33.7782 128.186 31.1631 132.009 31.1631C135.843 31.1631 138.283 33.7782 138.283 37.9399C138.283 42.113 135.856 44.7167 132.009 44.7167C128.162 44.7167 125.735 42.113 125.735 37.9399ZM135.517 37.9399C135.517 35.0851 134.208 33.4001 132.009 33.4001C129.809 33.4001 128.502 35.0979 128.502 37.9399C128.502 40.8061 129.809 42.4782 132.009 42.4782C134.208 42.4782 135.517 40.8061 135.517 37.9399H135.517Z" fill="white"/>
<path d="M140.521 31.3263H143.111V33.5776H143.174C143.349 32.8744 143.761 32.253 144.34 31.8179C144.92 31.3827 145.631 31.1602 146.355 31.1878C146.668 31.1868 146.98 31.2207 147.286 31.2891V33.8287C146.891 33.708 146.478 33.6525 146.066 33.6646C145.671 33.6486 145.278 33.7181 144.913 33.8685C144.548 34.0188 144.22 34.2463 143.951 34.5354C143.682 34.8245 143.479 35.1683 143.356 35.5433C143.233 35.9183 143.192 36.3155 143.236 36.7077V44.5531H140.521L140.521 31.3263Z" fill="white"/>
<path d="M159.803 40.6677C159.438 43.0689 157.1 44.7167 154.108 44.7167C150.26 44.7167 147.872 42.1386 147.872 38.0027C147.872 33.8538 150.273 31.1631 153.994 31.1631C157.653 31.1631 159.955 33.6769 159.955 37.6874V38.6176H150.613V38.7816C150.569 39.2684 150.63 39.7588 150.791 40.2202C150.952 40.6817 151.21 41.1035 151.546 41.4579C151.883 41.8122 152.291 42.0909 152.743 42.2755C153.196 42.46 153.682 42.5461 154.171 42.5281C154.812 42.5882 155.456 42.4397 156.006 42.1045C156.557 41.7693 156.984 41.2654 157.225 40.6677L159.803 40.6677ZM150.625 36.7201H157.238C157.262 36.2824 157.196 35.8444 157.043 35.4335C156.89 35.0227 156.654 34.6479 156.349 34.3327C156.045 34.0175 155.678 33.7686 155.273 33.6018C154.868 33.4349 154.432 33.3536 153.994 33.3631C153.552 33.3604 153.113 33.4454 152.704 33.613C152.295 33.7806 151.923 34.0276 151.61 34.3397C151.297 34.6518 151.049 35.0229 150.88 35.4314C150.711 35.84 150.624 36.2779 150.625 36.7201V36.7201Z" fill="white"/>
<path d="M55.2617 12.7555C55.831 12.7147 56.4021 12.8006 56.9341 13.0073C57.466 13.2139 57.9455 13.536 58.3379 13.9504C58.7302 14.3647 59.0258 14.861 59.2031 15.4034C59.3805 15.9458 59.4353 16.5208 59.3635 17.0869C59.3635 19.8719 57.8583 21.4727 55.2617 21.4727H52.113V12.7555H55.2617ZM53.467 20.2399H55.1105C55.5172 20.2642 55.9243 20.1975 56.302 20.0447C56.6797 19.8918 57.0186 19.6567 57.294 19.3564C57.5693 19.0561 57.7743 18.6981 57.8939 18.3086C58.0135 17.9191 58.0447 17.5078 57.9853 17.1047C58.0404 16.7032 58.006 16.2945 57.8846 15.9078C57.7631 15.5211 57.5577 15.1661 57.2829 14.8682C57.0082 14.5703 56.6709 14.3368 56.2954 14.1845C55.9198 14.0322 55.5152 13.9649 55.1105 13.9874H53.467V20.2399Z" fill="white"/>
<path d="M60.8931 18.1804C60.8517 17.7481 60.9012 17.3119 61.0383 16.8998C61.1754 16.4877 61.3971 16.1088 61.6892 15.7875C61.9813 15.4661 62.3373 15.2093 62.7345 15.0336C63.1317 14.8579 63.5612 14.7671 63.9954 14.7671C64.4297 14.7671 64.8592 14.8579 65.2564 15.0336C65.6535 15.2093 66.0096 15.4661 66.3017 15.7875C66.5938 16.1088 66.8155 16.4877 66.9526 16.8998C67.0897 17.3119 67.1392 17.7481 67.0978 18.1804C67.1399 18.6132 67.0911 19.0499 66.9543 19.4627C66.8176 19.8754 66.596 20.255 66.3039 20.577C66.0117 20.899 65.6554 21.1564 65.2578 21.3325C64.8603 21.5086 64.4303 21.5995 63.9954 21.5995C63.5606 21.5995 63.1306 21.5086 62.7331 21.3325C62.3355 21.1564 61.9792 20.899 61.687 20.577C61.3949 20.255 61.1733 19.8754 61.0365 19.4627C60.8998 19.0499 60.851 18.6132 60.8931 18.1804ZM65.7624 18.1804C65.7624 16.7544 65.1218 15.9205 63.9976 15.9205C62.8691 15.9205 62.2342 16.7544 62.2342 18.1804C62.2342 19.6178 62.8691 20.4453 63.9976 20.4453C65.1218 20.4453 65.7624 19.6121 65.7624 18.1804H65.7624Z" fill="white"/>
<path d="M75.3453 21.4725H73.9985L72.6389 16.6275H72.5361L71.1822 21.4725H69.8482L68.0349 14.894H69.3518L70.5302 19.9138H70.6272L71.9797 14.894H73.2252L74.5777 19.9138H74.6805L75.8532 14.894H77.1515L75.3453 21.4725Z" fill="white"/>
<path d="M78.6768 14.8942H79.9265V15.9393H80.0236C80.1881 15.5639 80.4657 15.2493 80.8176 15.0392C81.1695 14.8291 81.5782 14.734 81.9867 14.7672C82.3068 14.7432 82.6282 14.7914 82.9271 14.9084C83.226 15.0254 83.4947 15.2082 83.7134 15.4432C83.9321 15.6782 84.0951 15.9594 84.1904 16.2659C84.2856 16.5724 84.3107 16.8965 84.2637 17.214V21.4726H82.9654V17.54C82.9654 16.4828 82.506 15.9571 81.5458 15.9571C81.3285 15.947 81.1116 15.984 80.9099 16.0655C80.7082 16.1471 80.5265 16.2713 80.3773 16.4296C80.2281 16.588 80.1149 16.7767 80.0455 16.9829C79.9761 17.1891 79.952 17.4078 79.975 17.6242V21.4727H78.6768L78.6768 14.8942Z" fill="white"/>
<path d="M86.3323 12.3262H87.6306V21.4727H86.3323V12.3262Z" fill="white"/>
<path d="M89.4355 18.1805C89.3942 17.7482 89.4437 17.312 89.5808 16.8999C89.718 16.4878 89.9397 16.1089 90.2318 15.7875C90.524 15.4661 90.88 15.2093 91.2772 15.0336C91.6744 14.8579 92.1039 14.7671 92.5382 14.7671C92.9726 14.7671 93.4021 14.8579 93.7993 15.0336C94.1965 15.2093 94.5525 15.4661 94.8447 15.7875C95.1368 16.1089 95.3585 16.4878 95.4957 16.8999C95.6328 17.312 95.6823 17.7482 95.641 18.1805C95.683 18.6133 95.6341 19.0501 95.4974 19.4628C95.3606 19.8756 95.139 20.2552 94.8468 20.5772C94.5546 20.8992 94.1982 21.1565 93.8006 21.3326C93.4031 21.5086 92.9731 21.5996 92.5382 21.5996C92.1034 21.5996 91.6734 21.5086 91.2758 21.3326C90.8783 21.1565 90.5219 20.8992 90.2297 20.5772C89.9375 20.2552 89.7159 19.8756 89.5791 19.4628C89.4424 19.0501 89.3934 18.6133 89.4355 18.1805ZM94.3048 18.1805C94.3048 16.7545 93.6642 15.9206 92.54 15.9206C91.4115 15.9206 90.7767 16.7545 90.7767 18.1805C90.7767 19.6179 91.4116 20.4454 92.54 20.4454C93.6643 20.4454 94.3049 19.6122 94.3049 18.1805H94.3048Z" fill="white"/>
<path d="M97.0076 19.6121C97.0076 18.428 97.8893 17.7453 99.4543 17.6483L101.236 17.5456V16.9778C101.236 16.2829 100.777 15.8906 99.8895 15.8906C99.1647 15.8906 98.6625 16.1567 98.5184 16.6218H97.2615C97.3942 15.4918 98.4571 14.7671 99.9494 14.7671C101.599 14.7671 102.529 15.5881 102.529 16.9778V21.4726H101.279V20.5481H101.176C100.968 20.8797 100.675 21.15 100.328 21.3315C99.9808 21.513 99.5917 21.599 99.2004 21.5809C98.9242 21.6097 98.6451 21.5802 98.381 21.4944C98.1169 21.4087 97.8738 21.2686 97.6672 21.0831C97.4606 20.8976 97.2951 20.6708 97.1815 20.4175C97.0679 20.1641 97.0087 19.8898 97.0076 19.6121ZM101.236 19.05V18.5L99.6298 18.6028C98.7239 18.6634 98.313 18.9715 98.313 19.5515C98.313 20.1436 98.8266 20.4881 99.5329 20.4881C99.7398 20.5091 99.9488 20.4882 100.148 20.4267C100.346 20.3652 100.531 20.2644 100.689 20.1302C100.848 19.996 100.979 19.8312 101.073 19.6457C101.167 19.4601 101.222 19.2575 101.236 19.05Z" fill="white"/>
<path d="M104.235 18.1806C104.235 16.1019 105.304 14.7851 106.966 14.7851C107.377 14.7662 107.785 14.8646 108.142 15.069C108.5 15.2734 108.791 15.5752 108.983 15.9392H109.08V12.3262H110.379V21.4727H109.135V20.4334H109.032C108.825 20.7949 108.523 21.093 108.159 21.2953C107.795 21.4976 107.382 21.5965 106.966 21.5811C105.293 21.5812 104.235 20.2643 104.235 18.1806ZM105.576 18.1806C105.576 19.576 106.234 20.4156 107.334 20.4156C108.428 20.4156 109.105 19.5638 109.105 18.1864C109.105 16.8153 108.421 15.9514 107.334 15.9514C106.241 15.9514 105.576 16.7967 105.576 18.1806H105.576Z" fill="white"/>
<path d="M115.75 18.1804C115.709 17.7481 115.758 17.3119 115.895 16.8998C116.032 16.4877 116.254 16.1088 116.546 15.7875C116.838 15.4661 117.194 15.2093 117.591 15.0336C117.989 14.8579 118.418 14.7671 118.852 14.7671C119.287 14.7671 119.716 14.8579 120.113 15.0336C120.51 15.2093 120.867 15.4661 121.159 15.7875C121.451 16.1088 121.672 16.4877 121.81 16.8998C121.947 17.3119 121.996 17.7481 121.955 18.1804C121.997 18.6132 121.948 19.0499 121.811 19.4627C121.675 19.8754 121.453 20.255 121.161 20.577C120.869 20.899 120.512 21.1564 120.115 21.3325C119.717 21.5086 119.287 21.5995 118.852 21.5995C118.418 21.5995 117.988 21.5086 117.59 21.3325C117.192 21.1564 116.836 20.899 116.544 20.577C116.252 20.255 116.03 19.8754 115.893 19.4627C115.757 19.0499 115.708 18.6132 115.75 18.1804ZM120.619 18.1804C120.619 16.7544 119.979 15.9205 118.855 15.9205C117.726 15.9205 117.091 16.7544 117.091 18.1804C117.091 19.6178 117.726 20.4453 118.855 20.4453C119.979 20.4453 120.619 19.6121 120.619 18.1804Z" fill="white"/>
<path d="M123.697 14.8942H124.947V15.9393H125.044C125.208 15.5639 125.486 15.2493 125.838 15.0392C126.19 14.8291 126.598 14.734 127.007 14.7672C127.327 14.7432 127.648 14.7914 127.947 14.9084C128.246 15.0254 128.515 15.2082 128.733 15.4432C128.952 15.6782 129.115 15.9594 129.21 16.2659C129.306 16.5724 129.331 16.8965 129.284 17.214V21.4726H127.985V17.54C127.985 16.4828 127.526 15.9571 126.566 15.9571C126.349 15.947 126.132 15.984 125.93 16.0655C125.728 16.1471 125.547 16.2713 125.397 16.4296C125.248 16.588 125.135 16.7767 125.066 16.9829C124.996 17.1891 124.972 17.4078 124.995 17.6242V21.4727H123.697V14.8942Z" fill="white"/>
<path d="M136.62 13.2563V14.9242H138.045V16.0177H136.62V19.4004C136.62 20.0895 136.904 20.3913 137.55 20.3913C137.715 20.3907 137.881 20.3807 138.045 20.3613V21.4427C137.812 21.4844 137.576 21.5066 137.339 21.5091C135.895 21.5091 135.32 21.0012 135.32 19.7328V16.0177H134.276V14.9241H135.32V13.2563H136.62Z" fill="white"/>
<path d="M139.818 12.3262H141.105V15.9514H141.208C141.381 15.5726 141.666 15.2561 142.025 15.0453C142.384 14.8344 142.799 14.7393 143.214 14.773C143.532 14.7556 143.851 14.8088 144.146 14.9287C144.442 15.0485 144.707 15.2321 144.923 15.4664C145.14 15.7006 145.302 15.9797 145.398 16.2838C145.494 16.5879 145.522 16.9094 145.479 17.2255V21.4727H144.18V17.5457C144.18 16.495 143.69 15.9628 142.773 15.9628C142.55 15.9445 142.326 15.9752 142.115 16.0527C141.905 16.1302 141.715 16.2527 141.557 16.4115C141.399 16.5704 141.278 16.7618 141.202 16.9724C141.126 17.1829 141.097 17.4076 141.117 17.6306V21.4727H139.818L139.818 12.3262Z" fill="white"/>
<path d="M153.05 19.6964C152.873 20.2977 152.491 20.8177 151.97 21.1657C151.449 21.5136 150.822 21.6672 150.199 21.5996C149.766 21.6111 149.335 21.5281 148.937 21.3564C148.539 21.1847 148.183 20.9284 147.894 20.6053C147.605 20.2822 147.389 19.9001 147.263 19.4855C147.136 19.0708 147.101 18.6336 147.16 18.2041C147.103 17.7733 147.138 17.3351 147.265 16.9192C147.391 16.5033 147.605 16.1195 147.893 15.7936C148.18 15.4677 148.535 15.2074 148.932 15.0303C149.329 14.8532 149.759 14.7635 150.194 14.7672C152.024 14.7672 153.128 16.0178 153.128 18.0835V18.5365H148.483V18.6093C148.463 18.8507 148.493 19.0937 148.572 19.3227C148.651 19.5517 148.777 19.7617 148.942 19.9391C149.107 20.1165 149.307 20.2576 149.53 20.3531C149.753 20.4486 149.993 20.4966 150.235 20.4939C150.545 20.5312 150.86 20.4753 151.139 20.3333C151.417 20.1912 151.648 19.9696 151.8 19.6964L153.05 19.6964ZM148.483 17.5764H151.806C151.822 17.3556 151.792 17.1338 151.718 16.9253C151.643 16.7168 151.526 16.5262 151.373 16.3657C151.221 16.2052 151.037 16.0784 150.832 15.9934C150.628 15.9084 150.408 15.8671 150.186 15.8722C149.962 15.8694 149.739 15.9115 149.531 15.9962C149.323 16.0808 149.134 16.2063 148.975 16.3651C148.817 16.5239 148.691 16.7129 148.607 16.9209C148.522 17.129 148.48 17.3518 148.483 17.5764H148.483Z" fill="white"/>
</g>
<defs>
<clipPath id="clip0_399_30848">
<rect width="174.822" height="58.4375" fill="white"/>
</clipPath>
</defs>
</svg>
